<?xml version="1.0" encoding="UTF-8"?>
<svg version="1.1" xmlns="http://www.w3.org/2000/svg" width="40" height="20">
<path d="M0 0 C13.2 0 26.4 0 40 0 C40 6.6 40 13.2 40 20 C26.8 20 13.6 20 0 20 C0 13.4 0 6.8 0 0 Z " fill="#C8102E" transform="translate(0,0)"/>
<path d="M0 0 C5.94 0 11.88 0 18 0 C18 2.64 18 5.28 18 8 C12.06 8 6.12 8 0 8 C0 5.36 0 2.72 0 0 Z " fill="#F2EEF2" transform="translate(0,12)"/>
<path d="M0 0 C5.94 0 11.88 0 18 0 C18 2.64 18 5.28 18 8 C12.06 8 6.12 8 0 8 C0 5.36 0 2.72 0 0 Z " fill="#FAF8FA" transform="translate(22,12)"/>
<path d="M0 0 C5.94 0 11.88 0 18 0 C18 2.64 18 5.28 18 8 C12.06 8 6.12 8 0 8 C0 5.36 0 2.72 0 0 Z " fill="#F9F3F6" transform="translate(0,0)"/>
<path d="M0 0 C5.94 0 11.88 0 18 0 C18 2.64 18 5.28 18 8 C12.06 8 6.12 8 0 8 C0 5.36 0 2.72 0 0 Z " fill="#FDFBFC" transform="translate(22,0)"/>
<path d="M0 0 C0 1.98 0 3.96 0 6 C-5.28 6 -10.56 6 -16 6 C-13.27165185 3.95373889 -10.96295534 2.30092194 -8 0.75 C-7.01 0.21632813 -7.01 0.21632813 -6 -0.328125 C-3.60158317 -1.13384316 -2.35481623 -0.81998065 0 0 Z " fill="#A46F8D" transform="translate(17,14)"/>
<path d="M0 0 C5.28 0 10.56 0 16 0 C13.27165185 2.04626111 10.96295534 3.69907806 8 5.25 C7.34 5.60578125 6.68 5.9615625 6 6.328125 C3.60158317 7.13384316 2.35481623 6.81998065 0 6 C0 4.02 0 2.04 0 0 Z " fill="#B56581" transform="translate(23,0)"/>
<path d="M0 0 C4.29 0 8.58 0 13 0 C13 2.31 13 4.62 13 7 C8.71 5.02 4.42 3.04 0 1 C0 0.67 0 0.34 0 0 Z " fill="#804F78" transform="translate(27,13)"/>
<path d="M0 0 C6.435 2.97 6.435 2.97 13 6 C9.98509443 7.00496852 7.95818308 7.10335303 4.8125 7.0625 C3.46091797 7.04896484 3.46091797 7.04896484 2.08203125 7.03515625 C1.39496094 7.02355469 0.70789062 7.01195312 0 7 C0 4.69 0 2.38 0 0 Z " fill="#CC5D74" transform="translate(0,0)"/>
<path d="M0 0 C3.96 0 7.92 0 12 0 C12 1.98 12 3.96 12 6 C7.76570244 4.68938409 3.92592596 3.05643741 0 1 C0 0.67 0 0.34 0 0 Z " fill="#203C7B" transform="translate(5,0)"/>
<path d="M0 0 C3.7910119 1.44950455 7.3874638 3.15172566 11 5 C11 5.33 11 5.66 11 6 C7.37 6 3.74 6 0 6 C0 4.02 0 2.04 0 0 Z " fill="#143174" transform="translate(23,14)"/>
<path d="M0 0 C0 1.65 0 3.3 0 5 C-3.3 5 -6.6 5 -10 5 C-3.33333333 0 -3.33333333 0 0 0 Z " fill="#03226A" transform="translate(16,15)"/>
<path d="M0 0 C3.3 0 6.6 0 10 0 C6.43688534 2.672336 4.15414253 3.77263971 0 5 C0 3.35 0 1.7 0 0 Z " fill="#03226A" transform="translate(24,0)"/>
<path d="M0 0 C4.85963179 0.60745397 8.7405518 2.72758967 13 5 C13 5.33 13 5.66 13 6 C8.02693484 5.50269348 4.36200187 4.44697666 0 2 C0 1.34 0 0.68 0 0 Z " fill="#E2DCE5" transform="translate(26,14)"/>
<path d="M0 0 C0 1.32 0 2.64 0 4 C-2.64 4 -5.28 4 -8 4 C-5.29881977 1.17603885 -4.05589853 0 0 0 Z " fill="#294481" transform="translate(40,3)"/>
<path d="M0 0 C0.33 0.99 0.66 1.98 1 3 C-1.97 4.32 -4.94 5.64 -8 7 C-8.66 6.34 -9.32 5.68 -10 5 C-6.7 3.35 -3.4 1.7 0 0 Z " fill="#EEE3E9" transform="translate(39,0)"/>
<path d="M0 0 C2.64 0 5.28 0 8 0 C7.67 0.66 7.34 1.32 7 2 C4.6859378 2.73075648 2.35171131 3.40138258 0 4 C0 2.68 0 1.36 0 0 Z " fill="#213D7C" transform="translate(0,13)"/>
<path d="M0 0 C2.35171131 0.59861742 4.6859378 1.26924352 7 2 C7.33 2.66 7.66 3.32 8 4 C5.36 4 2.72 4 0 4 C0 2.68 0 1.36 0 0 Z " fill="#213D7C" transform="translate(0,3)"/>
<path d="M0 0 C0.33 0.99 0.66 1.98 1 3 C-2.13498292 4.85776765 -4.37471432 5.20140476 -8 5 C-5.44008376 2.98863724 -2.95409701 1.37154504 0 0 Z " fill="#C75B74" transform="translate(9,15)"/>
</svg>
