<?xml version="1.0" encoding="UTF-8"?>
<svg version="1.1" xmlns="http://www.w3.org/2000/svg" width="40" height="27">
<path d="M0 0 C13.2 0 26.4 0 40 0 C40 8.91 40 17.82 40 27 C26.8 27 13.6 27 0 27 C0 18.09 0 9.18 0 0 Z " fill="#FEC300" transform="translate(0,0)"/>
<path d="M0 0 C1.11375 0.556875 1.11375 0.556875 2.25 1.125 C2.25 3.765 2.25 6.405 2.25 9.125 C9.51 9.455 16.77 9.785 24.25 10.125 C24.25 12.435 24.25 14.745 24.25 17.125 C11.05 17.125 -2.15 17.125 -15.75 17.125 C-15.75 14.815 -15.75 12.505 -15.75 10.125 C-11.295 9.63 -11.295 9.63 -6.75 9.125 C-6.75 6.485 -6.75 3.845 -6.75 1.125 C-4.02098495 -0.69434337 -3.21400584 -1.02263822 0 0 Z " fill="#C8111D" transform="translate(15.75,9.875)"/>
<path d="M0 0 C13.2 0 26.4 0 40 0 C40 2.31 40 4.62 40 7 C26.8 7 13.6 7 0 7 C0 4.69 0 2.38 0 0 Z " fill="#C8111D" transform="translate(0,0)"/>
<path d="M0 0 C1.11375 0.556875 1.11375 0.556875 2.25 1.125 C2.25 3.765 2.25 6.405 2.25 9.125 C-3.90234375 10.00390625 -3.90234375 10.00390625 -5.75 10.125 C-6.75 9.125 -6.75 9.125 -6.84765625 7.27734375 C-6.81510417 5.2265625 -6.78255208 3.17578125 -6.75 1.125 C-4.02098495 -0.69434337 -3.21400584 -1.02263822 0 0 Z " fill="#AD5819" transform="translate(15.75,9.875)"/>
<path d="M0 0 C0 2.64 0 5.28 0 8 C-0.66 8 -1.32 8 -2 8 C-2 6.68 -2 5.36 -2 4 C-2.99 3.67 -3.98 3.34 -5 3 C-5 2.34 -5 1.68 -5 1 C-3 0 -3 0 0 0 Z " fill="#D1A351" transform="translate(18,11)"/>
<path d="M0 0 C0.99 0.495 0.99 0.495 2 1 C2 2.98 2 4.96 2 7 C3.32 7.33 4.64 7.66 6 8 C4.34385343 8.38218767 2.67542976 8.71395102 1 9 C0 8 0 8 -0.09765625 6.15234375 C-0.06510417 4.1015625 -0.03255208 2.05078125 0 0 Z " fill="#CE9730" transform="translate(9,11)"/>
</svg>
